<svg width="47" height="35" viewBox="0 0 47 35" fill="none" xmlns="http://www.w3.org/2000/svg">
<path d="M23.5 26.25C25.0174 26.25 26.5348 25.7558 27.8291 24.7543L47 9.95312V30.625C47 33.0404 45.0273 35 42.5938 35H4.40625C1.97271 35 0 33.0413 0 30.625V9.95312L19.1672 24.7643C20.4615 25.7578 21.9854 26.25 23.5 26.25ZM45.5046 7.41016L26.0253 22.4583C24.5391 23.6068 22.4572 23.6068 20.971 22.4583L1.4917 7.41016C0.6334 6.68099 0 5.5599 0 4.375C0 1.95872 1.97363 0 4.40625 0H42.5938C45.0273 0 47 1.95872 47 4.375C47 5.5599 46.4483 6.68099 45.5046 7.41016Z" fill="#326EAC"/>
</svg>
