<svg width="69" height="112" viewBox="0 0 69 112" fill="none" xmlns="http://www.w3.org/2000/svg">
<path fill-rule="evenodd" clip-rule="evenodd" d="M54.4737 90.606V98.0526H61.7462C65.7524 98.0526 69 94.8172 69 90.7988V29.0526H50.8636C46.8404 29.0526 43.5789 25.8325 43.5789 21.7964V0H7.29414C3.2657 0 0 3.26239 0 7.28978V90.7629C0 94.7889 3.23547 98.0526 7.25379 98.0526H36.3158V90.606C34.0693 88.3135 32.6842 85.1738 32.6842 81.7105C32.6842 74.6907 38.3749 69 45.3947 69C52.4146 69 58.1053 74.6907 58.1053 81.7105C58.1053 85.1738 56.7202 88.3135 54.4737 90.606ZM39.9474 93.1979V111.126L45.3947 105.679L50.8421 111.126V93.1979C49.1911 93.9822 47.3442 94.4211 45.3947 94.4211C43.4453 94.4211 41.5984 93.9822 39.9474 93.1979ZM47.2105 0V21.7788C47.2105 23.7904 48.8483 25.4211 50.8086 25.4211H69L47.2105 0ZM10.8947 25.4211V29.0526H36.3158V25.4211H10.8947ZM10.8947 14.5263V18.1579H36.3158V14.5263H10.8947ZM10.8947 36.3158V39.9474H58.1053V36.3158H10.8947ZM10.8947 47.2105V50.8421H58.1053V47.2105H10.8947ZM10.8947 58.1053V61.7368H58.1053V58.1053H10.8947ZM45.3947 90.7895C50.4089 90.7895 54.4737 86.7247 54.4737 81.7105C54.4737 76.6964 50.4089 72.6316 45.3947 72.6316C40.3806 72.6316 36.3158 76.6964 36.3158 81.7105C36.3158 86.7247 40.3806 90.7895 45.3947 90.7895Z" fill="#171F2D"/>
</svg>
