<svg width="82" height="47" viewBox="0 0 82 47" fill="none" xmlns="http://www.w3.org/2000/svg">
<path d="M48.4285 24.4327C48.1405 24.311 47.8952 24.1089 47.7228 23.8515C47.5505 23.5941 47.4586 23.2927 47.4587 22.9845C47.4567 22.7643 47.5007 22.546 47.5881 22.3433C47.6754 22.1405 47.8043 21.9575 47.9666 21.8057C48.0656 21.713 48.1604 21.6215 48.2314 21.5479C48.7336 21.0281 49.1767 20.456 49.5528 19.8418C50.5421 18.2189 51.0325 16.3492 50.9648 14.4584C50.8972 12.5676 50.2744 10.7364 49.1716 9.18586C48.0688 7.63528 46.5332 6.43155 44.75 5.7199C42.9667 5.00826 41.0121 4.81911 39.122 5.17527C37.1958 5.50685 35.4157 6.40048 34.0132 7.73997C32.6106 9.07946 31.6504 10.8028 31.2575 12.686C30.8944 14.3074 30.9562 15.993 31.4371 17.5846C31.9181 19.1762 32.8024 20.6216 34.0071 21.7852C34.1705 21.9376 34.3014 22.1205 34.392 22.3232C34.4825 22.526 34.531 22.7444 34.5346 22.9658V22.974C34.5375 23.2847 34.447 23.5894 34.2745 23.8498C34.102 24.1101 33.8551 24.3146 33.5648 24.4376C29.5918 26.0555 26.4235 29.1419 24.7416 33.0328C23.5592 35.6974 22.9661 38.5786 23.0015 41.4855V43.5801C23.0015 44.0293 23.0915 44.4741 23.2664 44.8891C23.4413 45.3041 23.6976 45.6811 24.0208 45.9987C24.3439 46.3163 24.7276 46.5682 25.1498 46.74C25.5719 46.9118 26.0244 47.0001 26.4814 47H55.5203C56.4428 46.9999 57.3275 46.6396 57.9798 45.9983C58.6321 45.357 58.9985 44.4873 58.9985 43.5804V41.4647C59.0338 38.5589 58.4397 35.679 57.2556 33.0164C55.5706 29.1289 52.401 26.0468 48.4285 24.4327Z" fill="black"/>
<path d="M30 22.0531C28.6845 20.9562 27.198 20.0713 25.5968 19.4321C25.307 19.3102 25.0601 19.1081 24.8867 18.8507C24.7132 18.5934 24.6207 18.292 24.6207 17.9839C24.6187 17.7636 24.6631 17.5453 24.7511 17.3425C24.8391 17.1397 24.9688 16.9567 25.1323 16.805C25.2315 16.7121 25.3272 16.6208 25.3987 16.547C25.9042 16.0275 26.3501 15.4558 26.7286 14.8418C27.7246 13.219 28.2184 11.3493 28.1504 9.45851C28.0825 7.56767 27.4556 5.73645 26.3456 4.18582C25.2355 2.6352 23.6897 1.43144 21.8946 0.719808C20.0995 0.00817784 18.1319 -0.18091 16.2292 0.175362C14.2903 0.506877 12.4983 1.40048 11.0865 2.73996C9.67456 4.07944 8.70804 5.80281 8.31257 7.68596C7.9471 9.30742 8.00933 10.993 8.49342 12.5845C8.9775 14.176 9.86758 15.6214 11.0802 16.7851C11.2448 16.9374 11.3766 17.1202 11.4678 17.323C11.5589 17.5257 11.6077 17.7442 11.6112 17.9656V17.9741C11.6142 18.2848 11.5231 18.5894 11.3495 18.8498C11.1758 19.1102 10.9272 19.3147 10.635 19.4376C6.6357 21.0555 3.44646 24.1418 1.75335 28.0325C0.563081 30.6971 -0.0340487 33.5783 0.00149883 36.4852V38.5807C0.00148077 39.0297 0.0920307 39.4744 0.267978 39.8892C0.443925 40.3041 0.701823 40.681 1.02695 40.9986C1.35207 41.3161 1.73805 41.5679 2.16285 41.7398C2.58765 41.9116 3.04294 42 3.50274 42H19.6374V41.2088C19.5973 37.7873 20.3063 34.3971 21.7171 31.2651C23.4101 27.4157 26.3103 24.1902 30 22.0531Z" fill="black"/>
<path d="M80.2435 28.0155C78.5474 24.1282 75.3568 21.0462 71.3577 19.4321C71.0679 19.3102 70.821 19.1081 70.6475 18.8507C70.4739 18.5933 70.3815 18.292 70.3814 17.9838C70.3794 17.7636 70.4238 17.5453 70.5117 17.3425C70.5997 17.1398 70.7294 16.9568 70.8928 16.805C70.9925 16.712 71.0882 16.6207 71.1593 16.547C71.665 16.0276 72.1112 15.4558 72.4898 14.8418C73.4859 13.219 73.9797 11.3493 73.9117 9.45848C73.8437 7.56765 73.2167 5.73645 72.1065 4.18583C70.9963 2.63522 69.4502 1.43147 67.6549 0.719834C65.8596 0.00819985 63.8917 -0.180906 61.9887 0.175337C60.0495 0.50679 58.2573 1.40038 56.8452 2.73987C55.4332 4.07936 54.4665 5.80277 54.0711 7.68594C53.7055 9.30739 53.7677 10.9929 54.2518 12.5845C54.7359 14.1761 55.6262 15.6214 56.839 16.7851C57.0036 16.9374 57.1354 17.1203 57.2266 17.323C57.3178 17.5257 57.3665 17.7442 57.37 17.9656V17.974C57.3731 18.2848 57.282 18.5895 57.1083 18.8498C56.9346 19.1102 56.686 19.3147 56.3937 19.4376C54.7962 20.0765 53.3131 20.9598 52 22.0541C55.6842 24.187 58.5816 27.405 60.2762 31.246C61.6904 34.3768 62.4013 37.7671 62.361 41.1886V42H78.4965C79.4252 42 80.3159 41.6398 80.9727 40.9985C81.6294 40.3573 81.9984 39.4876 81.9985 38.5807V36.4638C82.0341 33.558 81.4358 30.6781 80.2435 28.0155Z" fill="black"/>
</svg>
