<svg width="48" height="48" viewBox="0 0 48 48" fill="none" xmlns="http://www.w3.org/2000/svg">
<path d="M42 18H30V6C30 4.4087 29.3679 2.88258 28.2426 1.75736C27.1174 0.63214 25.5913 0 24 0C22.4087 0 20.8826 0.63214 19.7574 1.75736C18.6321 2.88258 18 4.4087 18 6V18H6C4.4087 18 2.88258 18.6321 1.75736 19.7574C0.63214 20.8826 0 22.4087 0 24C0 25.5913 0.63214 27.1174 1.75736 28.2426C2.88258 29.3679 4.4087 30 6 30H18V42C18 43.5913 18.6321 45.1174 19.7574 46.2426C20.8826 47.3679 22.4087 48 24 48C25.5913 48 27.1174 47.3679 28.2426 46.2426C29.3679 45.1174 30 43.5913 30 42V30H42C43.5913 30 45.1174 29.3679 46.2426 28.2426C47.3679 27.1174 48 25.5913 48 24C48 22.4087 47.3679 20.8826 46.2426 19.7574C45.1174 18.6321 43.5913 18 42 18Z" fill="black"/>
</svg>
