<svg width="74" height="58" viewBox="0 0 74 58" fill="none" xmlns="http://www.w3.org/2000/svg">
<path d="M74 4.14286C74 6.43049 72.1616 8.28571 69.8889 8.28571H57.5556V20.7143C57.5556 23.0019 55.7171 24.8571 53.4444 24.8571H41.1111V37.2857C41.1111 39.5733 39.2727 41.4286 37 41.4286H24.6667V53.8571C24.6667 56.1448 22.8282 58 20.5556 58H4.11111C1.83844 58 0 56.1448 0 53.8571C0 51.5695 1.83844 49.7143 4.11111 49.7143H16.4444V37.2857C16.4444 34.9981 18.2829 33.1429 20.5556 33.1429H32.8889V20.7143C32.8889 18.4267 34.7273 16.5714 37 16.5714H49.3333V4.14286C49.3333 1.85522 51.1718 0 53.4444 0H69.8889C72.1628 0 74 1.85522 74 4.14286Z" fill="black"/>
</svg>
