<svg width="49" height="73" viewBox="0 0 49 73" fill="none" xmlns="http://www.w3.org/2000/svg">
<path d="M33.3484 57.7586V64.6552H30.6353V66.7241H30.0248H28.2613L27.5152 68.3103C27.0404 69.4138 25.9551 70.1034 24.7342 70.1034C23.5133 70.1034 22.4281 69.4138 21.9533 68.3103L21.2072 66.7241H19.4437H18.4262V64.6552H15.9166H15.7131V57.7586H33.3484ZM34.5014 55H14.967C13.8139 55.6897 13 56.1724 13 57.4138V64.8621C13 66.1724 13.8818 67.4138 15.1027 67.4138H15.8488C15.8488 68.7931 16.5949 69.4828 17.5445 69.4828H19.3758C20.2576 71.5517 22.2924 73 24.6664 73C27.0404 73 29.0074 71.5517 29.957 69.4828H31.8562C32.8057 69.4828 33.5519 68.7931 33.5519 67.4138H34.298C35.5867 67.4138 35.9937 66.1724 35.9937 64.8621V57.4138C36.0615 56.1724 35.5867 55 34.5014 55Z" fill="#2C3E50"/>
<path d="M24.5214 2.72727C30.2125 2.72727 35.7664 5.18182 39.7433 9.34091C48.3828 18.3409 48.3828 30.9545 39.7433 39.5455C35.6293 43.6364 33.4351 47.7273 32.3381 51.1364H16.7047C15.6076 48.4091 13.4821 43.8409 9.23089 39.5455C0.591416 31.0227 0.591416 18.3409 9.23089 9.34091C13.3449 5.04546 18.7617 2.72727 24.5214 2.72727ZM24.5214 0C18.0075 0 11.8364 2.65909 7.24244 7.5C-2.42555 17.5909 -2.42554 31.8409 7.31101 41.5227C11.6993 45.8864 13.8249 50.4545 14.6477 53.8636H34.3265V54C35.2179 50.5909 37.2749 45.9545 41.6632 41.5909C51.3998 31.9091 51.4683 17.5909 41.7318 7.5C37.2063 2.72727 30.9667 0 24.5214 0Z" fill="black"/>
<path d="M31.8307 30.3261C31.5648 30.0652 31.166 30.0652 30.9 30.3261L24.0529 36.9783L17.1393 30.1957C16.8734 29.9348 16.4745 29.9348 16.2086 30.1957C15.9427 30.4565 15.9427 30.8478 16.1422 31.1087L23.3217 38.1522V47.3478C23.3217 47.7391 23.5876 48 23.9864 48C24.3853 48 24.6512 47.7391 24.6512 47.3478V38.1522L31.7642 31.1739C32.0302 30.9783 32.0966 30.5217 31.8307 30.3261Z" fill="#2C3E50"/>
</svg>
