<svg width="84" height="84" viewBox="0 0 84 84" fill="none" xmlns="http://www.w3.org/2000/svg">
<rect width="84" height="84" rx="13" fill="#B6C2C8"/>
<path d="M42.6184 64C42.4019 64 42.1853 63.9388 41.9894 63.8367L40.0094 62.6734C39.7103 62.5101 39.8547 62.4489 39.9578 62.4183C40.3497 62.2857 40.4322 62.255 40.855 62.0101C40.8963 61.9897 40.9581 61.9999 40.9994 62.0203L42.5256 62.9183C42.5772 62.9489 42.6597 62.9489 42.7113 62.9183L48.6719 59.51C48.7234 59.4794 48.7647 59.4182 48.7647 59.3468V52.5404C48.7647 52.469 48.7337 52.4077 48.6719 52.3771L42.7113 48.979C42.6597 48.9484 42.5875 48.9484 42.5256 48.979L36.565 52.3771C36.5031 52.4077 36.4722 52.4792 36.4722 52.5404V59.3468C36.4722 59.408 36.5134 59.4692 36.565 59.4998L38.1944 60.4284C39.0812 60.8672 39.6278 60.3468 39.6278 59.8366V53.1118C39.6278 53.02 39.7 52.9384 39.8031 52.9384H40.5559C40.6487 52.9384 40.7312 53.0098 40.7312 53.1118V59.8366C40.7312 61.0101 40.0919 61.6734 38.9678 61.6734C38.6275 61.6734 38.3491 61.6734 37.5963 61.306L36.0287 60.4182C35.6472 60.1937 35.3997 59.7856 35.3997 59.3468V52.5404C35.3997 52.1016 35.6369 51.6832 36.0287 51.4689L41.9894 48.0606C42.3709 47.8463 42.8659 47.8463 43.2372 48.0606L49.1978 51.4689C49.5794 51.6934 49.8269 52.1016 49.8269 52.5404V59.3468C49.8269 59.7856 49.5897 60.2039 49.1978 60.4182L43.2372 63.8265C43.0619 63.9388 42.8453 64 42.6184 64ZM47.4344 57.2855C47.4344 56.0099 46.5681 55.6732 44.7325 55.4283C42.8762 55.1833 42.6906 55.0609 42.6906 54.6323C42.6906 54.2752 42.8453 53.8057 44.2169 53.8057C45.4441 53.8057 45.8978 54.0711 46.0834 54.8874C46.1041 54.9691 46.1659 55.0201 46.2484 55.0201H47.0219C47.0734 55.0201 47.1147 54.9997 47.1456 54.9691C47.1766 54.9282 47.1972 54.8874 47.1869 54.8364C47.0631 53.4282 46.1247 52.7751 44.2169 52.7751C42.5153 52.7751 41.5047 53.4894 41.5047 54.6731C41.5047 55.9691 42.5153 56.316 44.1447 56.4793C46.0938 56.6732 46.2484 56.9487 46.2484 57.3263C46.2484 57.9896 45.7122 58.2651 44.4541 58.2651C42.8763 58.2651 42.5256 57.8773 42.4122 57.1018C42.4019 57.0201 42.3297 56.9589 42.2369 56.9589H41.4634C41.3706 56.9589 41.2881 57.0304 41.2881 57.1324C41.2881 58.1222 41.8347 59.3059 44.4437 59.3059C46.3516 59.3059 47.4344 58.5712 47.4344 57.2855ZM53.0547 52.173C53.0547 52.7955 52.5391 53.3057 51.91 53.3057C51.2809 53.3057 50.7653 52.7955 50.7653 52.173C50.7653 51.5302 51.3016 51.0403 51.91 51.0403C52.5287 51.0301 53.0547 51.5302 53.0547 52.173ZM52.8691 52.173C52.8691 51.6424 52.4359 51.224 51.8997 51.224C51.3737 51.224 50.9406 51.6424 50.9406 52.173C50.9406 52.7037 51.3737 53.1323 51.8997 53.1323C52.4359 53.122 52.8691 52.6935 52.8691 52.173ZM52.405 52.8057H52.1369C52.1266 52.7445 52.0853 52.4179 52.0853 52.4077C52.0647 52.3363 52.0441 52.2955 51.9512 52.2955H51.7244V52.8057H51.4769V51.5301H51.9203C52.075 51.5301 52.3741 51.5302 52.3741 51.8669C52.3741 52.1016 52.2194 52.1526 52.1266 52.1832C52.3019 52.1934 52.3122 52.3057 52.3431 52.469C52.3534 52.571 52.3741 52.7445 52.405 52.8057ZM52.1162 51.9077C52.1162 51.7342 51.9925 51.7342 51.9306 51.7342H51.7244V52.0914H51.9203C52.0853 52.0914 52.1162 51.9791 52.1162 51.9077ZM24.1591 37.3664C24.1591 37.0908 24.0147 36.8459 23.7775 36.7133L17.4559 33.1111C17.3528 33.0499 17.2291 33.0193 17.1053 33.0091H17.0434C16.9197 33.0091 16.8063 33.0499 16.6928 33.1111L10.3816 36.7133C10.1444 36.8459 10 37.101 10 37.3664L10.0103 47.0606C10.0103 47.1933 10.0825 47.3157 10.1959 47.3871C10.3094 47.4586 10.4537 47.4586 10.5775 47.3871L14.3312 45.2544C14.5684 45.1115 14.7128 44.8666 14.7128 44.6013V40.0705C14.7128 39.8052 14.8572 39.5501 15.0944 39.4175L16.6928 38.5093C16.8166 38.4378 16.9403 38.4072 17.0744 38.4072C17.2084 38.4072 17.3425 38.4378 17.4559 38.5093L19.0544 39.4175C19.2916 39.5501 19.4359 39.8052 19.4359 40.0705V44.6013C19.4359 44.8666 19.5803 45.1217 19.8175 45.2544L23.5713 47.3871C23.6847 47.4586 23.8394 47.4586 23.9528 47.3871C24.0663 47.3259 24.1384 47.1933 24.1384 47.0606L24.1591 37.3664ZM58.7266 26.7843V44.785C58.7266 45.0503 58.5822 45.3054 58.345 45.4381L52.0234 49.0505C51.7862 49.1831 51.4975 49.1831 51.2603 49.0505L44.9387 45.4381C44.7016 45.3054 44.5572 45.0503 44.5572 44.785V37.5602C44.5572 37.2949 44.7016 37.0398 44.9387 36.9072L51.2603 33.2948C51.4975 33.1621 51.7862 33.1621 52.0234 33.2948L53.6012 34.1928C53.7766 34.2948 54.0034 34.1622 54.0034 33.9683V24.3761C54.0034 24.0904 54.3128 23.9067 54.5706 24.0495L58.3347 26.1313C58.5719 26.2537 58.7266 26.5088 58.7266 26.7843ZM53.9828 39.9379C53.9828 39.8665 53.9416 39.8052 53.89 39.7746L51.7244 38.5297C51.6625 38.4991 51.5903 38.4991 51.5284 38.5297L49.3628 39.7746C49.3009 39.8052 49.27 39.8665 49.27 39.9379V42.4176C49.27 42.489 49.3113 42.5502 49.3628 42.5808L51.5284 43.8156C51.5903 43.8462 51.6625 43.8462 51.7141 43.8156L53.8797 42.5808C53.9416 42.5502 53.9725 42.489 53.9725 42.4176V39.9379H53.9828ZM75.6184 39.8665C75.8556 39.7338 76 39.4787 76 39.2134V37.4684C76 37.2031 75.8556 36.948 75.6184 36.8153L69.3381 33.2029C69.1009 33.0703 68.8122 33.0703 68.575 33.2029L62.2534 36.8153C62.0163 36.948 61.8719 37.2031 61.8719 37.4684V44.6932C61.8719 44.9687 62.0163 45.2136 62.2534 45.3462L68.5337 48.8872C68.7606 49.0199 69.0494 49.0199 69.2866 48.8872L73.0816 46.7953C73.3394 46.6524 73.3394 46.2851 73.0816 46.1422L66.7187 42.5298C66.595 42.4584 66.5228 42.3359 66.5228 42.2033V39.9379C66.5228 39.8052 66.595 39.6828 66.7187 39.6113L68.6988 38.4786C68.8122 38.4072 68.9669 38.4072 69.0803 38.4786L71.0603 39.6113C71.1737 39.6828 71.2562 39.8052 71.2562 39.9379V41.7135C71.2562 41.9992 71.5759 42.1829 71.8337 42.04L75.6184 39.8665ZM67.6469 40.2236C67.6056 40.2542 67.5747 40.295 67.5747 40.3461V41.7339C67.5747 41.7849 67.6056 41.8359 67.6469 41.8563L68.8637 42.5502C68.905 42.5808 68.9669 42.5808 69.0081 42.5502L70.225 41.8563C70.2662 41.8257 70.2972 41.7849 70.2972 41.7339V40.3461C70.2972 40.295 70.2662 40.244 70.225 40.2236L69.0081 39.5297C68.9669 39.4991 68.905 39.4991 68.8637 39.5297L67.6469 40.2236ZM41.4325 44.6625V37.4786C41.4325 37.2133 41.2675 36.9582 41.0303 36.8255L34.7294 33.2336C34.5128 33.1111 34.2137 33.0907 33.9662 33.2336L27.6653 36.8255C27.4281 36.9582 27.2631 37.2031 27.2631 37.4786V44.6625C27.2631 44.9483 27.4591 45.1932 27.6756 45.3156L33.9869 48.9076C34.2344 49.0505 34.5231 49.0403 34.75 48.9076L41.0406 45.3156C41.2262 45.2136 41.3603 45.0401 41.4119 44.836C41.4222 44.785 41.4325 44.7238 41.4325 44.6625ZM33.7703 31.9172L33.6878 31.9682H33.8012L33.7703 31.9172ZM41.6284 45.2034L41.5872 45.132V45.2238L41.6284 45.2034Z" fill="white"/>
</svg>
