<svg width="84" height="84" viewBox="0 0 84 84" fill="none" xmlns="http://www.w3.org/2000/svg">
<rect width="84" height="84" rx="13" fill="#B6C2C8"/>
<rect x="23.5" y="33" width="53" height="43" fill="white"/>
<path d="M21 30L23.5 75.8255L79.5 78V31L21 30ZM45.9806 61.8926C45.9806 68.9171 41.8293 72.3415 35.82 72.3415C30.3924 72.3415 27.2419 69.5324 25.6433 66.1417L31.1676 62.7995C32.2328 64.6889 33.0418 66.2867 35.3672 66.2867C37.301 66.2867 38.8899 65.4153 38.8899 62.0247V39.3423H45.9806V61.8926ZM61.9909 72.1804C55.6915 72.1804 51.6209 69.3391 49.6339 65.4153L55.1662 62.2148C56.6166 64.589 58.5101 66.1707 61.854 66.1707C64.6644 66.1707 66.2969 64.9273 66.2969 62.9895C66.2969 60.6652 64.6161 59.8422 61.5139 58.4795L59.8186 57.7514C54.9229 55.6703 51.6773 53.0545 51.6773 47.5313C51.6773 42.4462 55.553 38.7318 61.6106 38.7318C65.9246 38.7318 69.0236 40.0719 71.2555 43.9957L65.9633 47.396C64.7998 45.3133 63.546 44.4966 61.6026 44.4966C59.6156 44.4966 58.3554 45.7562 58.3554 47.396C58.3554 49.4303 59.6156 50.2534 62.5227 51.513L64.218 52.2395C69.9856 54.7103 73.2328 57.2328 73.2328 62.8961C73.2344 69.0008 68.437 72.1804 61.9909 72.1804Z" fill="#B6C2C8"/>
</svg>
