<svg width="84" height="84" viewBox="0 0 84 84" fill="none" xmlns="http://www.w3.org/2000/svg">
<rect width="84" height="84" rx="13" fill="#B6C2C8"/>
<path d="M34.7692 13C29.9261 13 26 16.8056 26 21.5C26 26.1944 29.9261 30 34.7692 30H55.2308C60.074 30 64 26.1944 64 21.5C64 16.8056 60.074 13 55.2308 13H34.7692Z" fill="white"/>
<path d="M53.5 33C48.8054 33 45 37.0293 45 42C45 46.9707 48.8054 51 53.5 51C58.1945 51 62 46.9707 62 42C62 37.0293 58.1945 33 53.5 33Z" fill="white"/>
<path d="M26 42C26 37.0293 29.8056 33 34.5 33H43V51H34.5C29.8056 51 26 46.9707 26 42Z" fill="white"/>
<path d="M34.5 54C29.8056 54 26 57.8054 26 62.5C26 67.1945 29.8056 71 34.5 71C39.1945 71 43 67.1945 43 62.5V54H34.5Z" fill="white"/>
</svg>
