<svg width="84" height="84" viewBox="0 0 84 84" fill="none" xmlns="http://www.w3.org/2000/svg">
<rect width="84" height="84" rx="13" fill="#B6C2C8"/>
<path d="M41.5 48C44.5376 48 47 45.3137 47 42C47 38.6863 44.5376 36 41.5 36C38.4624 36 36 38.6863 36 42C36 45.3137 38.4624 48 41.5 48Z" fill="white"/>
<path d="M42 62.1628C46.446 66.4587 50.831 69 54.3635 69C55.5206 69 56.6169 68.758 57.5304 68.2134C60.6974 66.3982 61.8546 61.8603 60.7583 55.3861C60.5756 54.2365 60.332 53.0869 60.0275 51.8768C61.2456 51.5138 62.3418 51.1507 63.4381 50.7877C69.5894 48.4279 73 45.1606 73 41.5908C73 37.9604 69.5894 34.6931 63.4381 32.3938C62.3418 31.9703 61.2456 31.6073 60.0275 31.3047C60.332 30.0946 60.5756 28.945 60.7583 27.7954C61.7937 21.2002 60.6365 16.6018 57.4695 14.7866C56.556 14.242 55.4597 14 54.3025 14C50.831 14 46.3851 16.5413 41.9391 20.8372C37.554 16.5413 33.169 14 29.6365 14C28.4794 14 27.3831 14.242 26.4695 14.7866C23.3026 16.6018 22.1454 21.1397 23.2416 27.6139C23.4244 28.7635 23.668 29.9131 23.9725 31.1232C22.7544 31.4862 21.6582 31.8493 20.5619 32.2123C14.4106 34.5721 11 37.8394 11 41.4092C11 45.0396 14.4106 48.3069 20.5619 50.6062C21.6582 51.0297 22.7544 51.3927 23.9725 51.6953C23.668 52.9054 23.4244 54.055 23.2416 55.2046C22.2063 61.6788 23.3635 66.2772 26.4695 68.0319C27.3831 68.5765 28.4794 68.8185 29.6365 68.8185C33.169 68.9395 37.554 66.3982 42 62.1628ZM38.5894 53.9945C39.6857 54.055 40.8428 54.055 42 54.055C43.1572 54.055 44.3143 54.055 45.4106 53.9945C44.3143 55.4466 43.1572 56.7778 42 58.0484C40.8428 56.7778 39.6857 55.4466 38.5894 53.9945ZM31.0373 47.7624C31.6464 48.791 32.1945 49.7591 32.8644 50.7272C30.9764 50.4851 29.2102 50.1826 27.5049 49.8196C28.053 48.1859 28.6621 46.4918 29.3929 44.7976C29.8802 45.7657 30.4283 46.7943 31.0373 47.7624ZM27.5049 33.1804C29.2102 32.8174 30.9764 32.5149 32.8644 32.2728C32.2554 33.2409 31.6464 34.209 31.0373 35.2376C30.4283 36.2662 29.8802 37.2343 29.3929 38.2629C28.6012 36.5083 27.9921 34.8141 27.5049 33.1804ZM30.8546 41.4697C31.6464 39.8361 32.499 38.2024 33.4735 36.5688C34.387 34.9956 35.4224 33.4224 36.4578 31.8493C38.2849 31.7283 40.112 31.6678 42 31.6678C43.9489 31.6678 45.776 31.7283 47.5422 31.8493C48.6385 33.4224 49.613 34.9956 50.5265 36.5688C51.501 38.2024 52.3536 39.8361 53.1454 41.4697C52.3536 43.1034 51.501 44.7371 50.5265 46.3707C49.613 47.9439 48.5776 49.5171 47.5422 51.0902C45.7151 51.2112 43.888 51.2717 42 51.2717C40.0511 51.2717 38.224 51.2112 36.4578 51.0902C35.3615 49.5171 34.387 47.9439 33.4735 46.3707C32.499 44.7371 31.6464 43.1034 30.8546 41.4697ZM54.668 38.2024L53.0236 35.1771C52.4145 34.1485 51.8664 33.1804 51.1965 32.2123C53.0845 32.4543 54.8507 32.7569 56.556 33.1199C56.0079 34.8141 55.3988 36.5083 54.668 38.2024ZM54.668 44.7371C55.3988 46.4312 56.0079 48.1254 56.556 49.7591C54.8507 50.1221 53.0845 50.4246 51.1965 50.6667C51.8055 49.6986 52.4145 48.7305 53.0236 47.7019C53.5717 46.7943 54.1198 45.7657 54.668 44.7371ZM56.0688 65.7327C55.5815 66.0352 54.9725 66.1562 54.3025 66.1562C51.3183 66.1562 47.6031 63.736 43.9489 60.1056C45.7151 58.2299 47.4204 56.1122 49.1257 53.7525C51.9882 53.5105 54.7289 53.0869 57.2868 52.4818C57.5914 53.571 57.7741 54.6601 57.9568 55.7492C58.8094 60.8922 58.1395 64.5831 56.0688 65.7327ZM59.2358 33.846C66.057 35.7822 70.1375 38.747 70.1375 41.4697C70.1375 43.8295 67.3359 46.1892 62.4027 48.0649C61.4283 48.4279 60.332 48.791 59.2358 49.0935C58.444 46.6128 57.4695 44.0715 56.2515 41.4697C57.4695 38.868 58.5049 36.3267 59.2358 33.846ZM54.3635 16.7833C55.0334 16.7833 55.5815 16.9043 56.1297 17.2068C58.1395 18.3564 58.8703 21.9868 58.0177 27.1903C57.835 28.2189 57.5914 29.308 57.3477 30.4576C54.7898 29.9131 52.0491 29.4895 49.1866 29.187C47.5422 26.8273 45.776 24.7096 44.0098 22.8339C47.664 19.264 51.3792 16.7833 54.3635 16.7833ZM45.4106 28.945C44.3143 28.8845 43.1572 28.8845 42 28.8845C40.8428 28.8845 39.6857 28.8845 38.5894 28.945C39.6857 27.4928 40.8428 26.1617 42 24.8911C43.1572 26.1617 44.3143 27.5534 45.4106 28.945ZM27.9312 17.2068C28.4185 16.9043 29.0275 16.7833 29.6974 16.7833C32.6817 16.7833 36.3969 19.2035 40.0511 22.8339C38.2849 24.7096 36.5796 26.8273 34.8743 29.187C32.0118 29.429 29.2711 29.8526 26.7132 30.4576C26.4086 29.3685 26.2259 28.2794 26.0432 27.1903C25.1906 22.0473 25.8605 18.4169 27.9312 17.2068ZM24.7642 49.0935C17.943 47.1573 13.8625 44.1925 13.8625 41.4697C13.8625 39.11 16.664 36.7503 21.5972 34.8746C22.5717 34.5116 23.668 34.1485 24.7642 33.846C25.556 36.3267 26.5304 38.868 27.7485 41.4697C26.5304 44.0715 25.4951 46.6733 24.7642 49.0935ZM26.0432 55.7492C26.2259 54.7206 26.4695 53.6315 26.7132 52.4818C29.2711 53.0264 32.0118 53.4499 34.8743 53.7525C36.5187 56.1122 38.2849 58.2299 40.0511 60.1056C36.3969 63.6755 32.6817 66.1562 29.6974 66.1562C29.0275 66.1562 28.4794 66.0352 27.9312 65.7327C25.8605 64.5831 25.1906 60.8922 26.0432 55.7492Z" fill="white"/>
</svg>
