<svg width="84" height="84" viewBox="0 0 84 84" fill="none" xmlns="http://www.w3.org/2000/svg">
<rect width="84" height="84" rx="13" fill="#B6C2C8"/>
<path d="M50.1016 49.634C51.6516 49.4692 52.8274 48.0951 52.7739 46.4464C52.7205 44.7976 51.3842 43.4785 49.7809 43.4785H49.6739C48.0172 43.5336 46.7345 44.9625 46.7878 46.6662C46.8414 47.4906 47.162 48.2051 47.6431 48.6998C45.8259 52.3821 43.0467 55.0751 38.8778 57.3285C36.0451 58.8672 33.1055 59.4168 30.1659 59.0321C27.7608 58.7024 25.8902 57.6032 24.7144 55.7896C23.004 53.0966 22.8437 50.1836 24.2868 47.2708C25.3023 45.1823 26.9057 43.6434 27.9212 42.874C27.7074 42.1596 27.3867 40.9504 27.2263 40.0711C19.4766 45.8419 20.2783 53.6462 22.6299 57.3285C24.3937 60.0764 27.9746 61.7802 31.9297 61.7802C32.9986 61.7802 34.0675 61.6702 35.1365 61.3955C41.9776 60.0215 47.162 55.8445 50.1016 49.634ZM59.5083 42.819C55.4463 37.9276 49.4603 35.2346 42.619 35.2346H41.7639C41.2829 34.2453 40.2673 33.5858 39.1451 33.5858H39.0381C37.3812 33.6407 36.0985 35.0697 36.152 36.7735C36.2054 38.4223 37.5416 39.7413 39.1451 39.7413H39.2518C40.4276 39.6864 41.4432 38.9168 41.8707 37.8727H42.8328C46.8948 37.8727 50.743 39.0817 54.217 41.4451C56.8894 43.2587 58.8133 45.6219 59.8824 48.4798C60.791 50.7883 60.7375 53.0415 59.7755 54.9651C58.2789 57.8781 55.7669 59.4719 52.4533 59.4719C50.3153 59.4719 48.2844 58.8123 47.2155 58.3177C46.6275 58.8672 45.5586 59.7466 44.8103 60.2962C47.1086 61.3955 49.4603 62 51.705 62C56.8358 62 60.6305 59.0872 62.0736 56.1743C63.6236 52.9866 63.5168 47.4906 59.5083 42.819ZM32.3572 50.5683C32.4107 52.2172 33.7469 53.5362 35.3503 53.5362H35.4572C37.114 53.4813 38.3967 52.0523 38.3433 50.3485C38.2898 48.6998 36.9537 47.3806 35.3503 47.3806H35.2434C35.1365 47.3806 34.9761 47.3806 34.8693 47.4357C32.6779 43.6983 31.7693 39.6313 32.09 35.2346C32.3038 31.937 33.3727 29.0791 35.2434 26.7158C36.7933 24.6823 39.7863 23.693 41.8173 23.6381C47.4828 23.5281 49.8878 30.7829 50.0481 33.6957C50.743 33.8606 51.9188 34.2453 52.7205 34.5201C52.0791 25.6166 46.7345 21 41.6035 21C36.7933 21 32.3572 24.5724 30.5935 29.8485C28.1349 36.8834 29.7384 43.6434 32.7314 48.9745C32.4641 49.3592 32.3038 49.9638 32.3572 50.5683Z" fill="white"/>
</svg>
