<svg width="84" height="84" viewBox="0 0 84 84" fill="none" xmlns="http://www.w3.org/2000/svg">
<rect width="84" height="84" rx="13" fill="#B6C2C8"/>
<g clip-path="url(#clip0_12_368)">
<path d="M59.9392 44.685C59.9371 43.4804 59.5363 42.3103 58.7993 41.3574C58.0623 40.4045 57.0306 39.7224 55.8652 39.4175L61.0942 24H35.182L40.425 39.4665C39.2931 39.7964 38.2987 40.4843 37.5907 41.427C36.8827 42.3697 36.4993 43.5165 36.498 44.6955C36.498 46.5208 37.408 48.1378 38.7957 49.1335C38.2375 49.9205 37.602 50.6498 36.8987 51.3105C35.6051 52.5426 34.0913 53.5203 32.4362 54.1928C30.9767 53.2075 30.345 51.4698 30.9155 49.9123C32.157 49.5266 33.2195 48.7093 33.9107 47.6081C34.6019 46.507 34.8761 45.1948 34.6836 43.9091C34.4912 42.6233 33.8448 41.4489 32.8616 40.5984C31.8783 39.7479 30.623 39.2775 29.323 39.2723C27.8787 39.2741 26.4941 39.8487 25.4729 40.8699C24.4516 41.8912 23.8771 43.2757 23.8752 44.72C23.8752 46.204 24.4825 47.5655 25.4555 48.5385C25.3715 48.7083 25.2857 48.8798 25.2 49.0618C24.3862 50.74 23.4622 52.637 23.1087 54.765C22.4035 59.021 23.5585 62.437 26.3445 64.3708C27.8523 65.4342 29.6531 66.0035 31.4982 66C34.6955 66 37.9417 64.3953 41.0795 62.8378C43.3177 61.7318 45.6277 60.5767 47.901 60.0167C48.741 59.8102 49.616 59.6895 50.54 59.5547C52.4125 59.287 54.3462 59.0088 56.084 57.9973C57.0764 57.4286 57.9324 56.6497 58.592 55.7153C59.2516 54.7809 59.6989 53.7135 59.9025 52.588C60.207 50.8485 59.9025 49.0985 59.1255 47.5655C59.647 46.7255 59.9392 45.7437 59.9392 44.685ZM57.568 44.685C57.568 46.3737 56.1942 47.7475 54.5055 47.7475C53.8695 47.7457 53.2499 47.5464 52.7322 47.177C52.2145 46.8076 51.8244 46.2865 51.6159 45.6857C51.4074 45.0849 51.3907 44.4341 51.5682 43.8235C51.7457 43.2128 52.1086 42.6724 52.6067 42.277L52.619 42.2648C52.717 42.1913 52.8255 42.1178 52.934 42.046C52.934 42.046 52.948 42.046 52.948 42.0338C52.997 42.0093 53.0442 41.9725 53.0932 41.9463C53.1055 41.9463 53.1177 41.9357 53.13 41.9357C53.179 41.9112 53.2402 41.8867 53.2997 41.8622C53.361 41.8377 53.4222 41.815 53.4712 41.7905C53.4835 41.7905 53.494 41.7783 53.5062 41.7783C53.5552 41.766 53.6042 41.7415 53.6532 41.7292C53.6655 41.7292 53.6882 41.717 53.7022 41.717C53.7617 41.7047 53.8107 41.6925 53.872 41.682H53.8842L54.0662 41.6435C54.0785 41.6435 54.1012 41.6435 54.1152 41.6312C54.1642 41.6312 54.2115 41.619 54.2605 41.619H54.3217C54.383 41.619 54.4442 41.6067 54.516 41.6067H54.6735C54.7225 41.6067 54.761 41.6067 54.8082 41.619H54.8327C54.929 41.6312 55.027 41.6435 55.125 41.668C55.8154 41.8159 56.4343 42.1958 56.8788 42.7444C57.3232 43.293 57.5665 43.979 57.568 44.685ZM38.5752 26.4325H57.7027L53.312 39.3825C53.13 39.4175 52.948 39.4788 52.766 39.54L48.146 30.1162L43.512 39.4788C43.33 39.4193 43.134 39.3825 42.9397 39.3458L38.5752 26.4325ZM47.2692 43.6263C47.0455 42.5038 46.4707 41.4815 45.6277 40.7072L48.1442 35.6253L50.6852 40.8175C49.9327 41.57 49.385 42.5325 49.1662 43.6263H47.2692ZM41.1775 41.7047C41.237 41.6925 41.286 41.6803 41.3472 41.6698H41.3822C41.433 41.6558 41.4802 41.6557 41.5292 41.6435H41.5782C41.6272 41.6435 41.664 41.6312 41.7112 41.6312H42.1855C42.2345 41.6312 42.2712 41.6435 42.308 41.6435C42.3325 41.6435 42.343 41.6435 42.3692 41.6557C42.4165 41.668 42.4532 41.668 42.5022 41.6802C42.5145 41.6802 42.5267 41.6802 42.5512 41.6925L42.721 41.7275H42.7332C42.7822 41.7415 42.8312 41.7538 42.8785 41.7783C42.8907 41.7783 42.903 41.7905 42.9275 41.7905C42.9642 41.8028 43.0132 41.815 43.05 41.8377C43.0622 41.8377 43.0745 41.85 43.085 41.85C43.134 41.8745 43.183 41.8867 43.232 41.9112H43.2442C43.3004 41.9325 43.3534 41.9613 43.4017 41.997H43.414C43.463 42.0215 43.512 42.0565 43.561 42.081C43.5732 42.081 43.5732 42.0932 43.5837 42.0932C43.6327 42.1177 43.6712 42.1545 43.7185 42.179L43.7307 42.1913C43.876 42.2998 44.0107 42.4222 44.1437 42.543L44.156 42.5552C44.6979 43.1261 44.9988 43.8839 44.996 44.671C44.9691 45.4658 44.6345 46.219 44.0628 46.7717C43.4911 47.3245 42.727 47.6334 41.9317 47.6334C41.1365 47.6334 40.3724 47.3245 39.8007 46.7717C39.229 46.219 38.8943 45.4658 38.8675 44.671C38.8656 43.9895 39.0921 43.3271 39.5108 42.7894C39.9295 42.2517 40.5163 41.8698 41.1775 41.7047ZM29.211 41.619C30.9015 41.619 32.2752 42.9945 32.2752 44.6833C32.2752 46.372 30.9015 47.7475 29.2127 47.7475C27.524 47.7475 26.1467 46.3737 26.1467 44.685C26.1467 42.9962 27.5222 41.619 29.211 41.619ZM57.4962 52.1628C57.3579 52.9407 57.0497 53.6786 56.5936 54.3238C56.1374 54.969 55.5445 55.5057 54.8572 55.8955C53.5307 56.662 51.9015 56.9052 50.1865 57.1485C49.2222 57.272 48.2644 57.442 47.3165 57.6577C44.7877 58.279 42.357 59.4953 39.998 60.6625C36.981 62.157 34.1355 63.5675 31.4982 63.5675C30.1459 63.5759 28.8258 63.1543 27.7287 62.3635C25.053 60.5155 25.186 57.0505 25.5027 55.1535C25.795 53.3773 26.6087 51.713 27.3875 50.1188C27.4365 50.0225 27.4732 49.9368 27.5222 49.8388C27.7882 49.9368 28.0682 50.0102 28.3605 50.0592C27.8985 52.637 29.211 55.2987 31.766 56.613L32.228 56.8562L32.725 56.6742C34.853 55.92 36.8235 54.6915 38.563 53.05C39.5236 52.1543 40.3726 51.146 41.0917 50.047C41.3717 50.0942 41.6517 50.1065 41.9317 50.1065C43.1355 50.1037 44.3046 49.7028 45.2567 48.9662C46.2089 48.2296 46.8906 47.1987 47.1957 46.0342H49.238C49.5411 47.2005 50.2228 48.2332 51.1761 48.9702C52.1294 49.7072 53.3005 50.1069 54.5055 50.1065C55.5135 50.1065 56.448 49.8265 57.253 49.354C57.568 50.264 57.666 51.2143 57.4962 52.1628Z" fill="white"/>
</g>
<defs>
<clipPath id="clip0_12_368">
<rect width="42" height="42" fill="white" transform="translate(21 24)"/>
</clipPath>
</defs>
</svg>
