<svg width="84" height="84" viewBox="0 0 84 84" fill="none" xmlns="http://www.w3.org/2000/svg">
<rect width="84" height="84" rx="13" fill="#B6C2C8"/>
<path d="M68.9414 40.5045L44.4893 16.0565C44.1545 15.7216 43.757 15.4559 43.3195 15.2746C42.882 15.0933 42.4131 15 41.9395 15C41.4659 15 40.9969 15.0933 40.5594 15.2746C40.1219 15.4559 39.7244 15.7216 39.3896 16.0565L34.3144 21.1316L40.7547 27.5717C41.5142 27.3124 42.3314 27.2718 43.1129 27.4547C43.8944 27.6375 44.6087 28.0363 45.1744 28.6056C45.7401 29.175 46.1344 29.8918 46.3122 30.6745C46.4899 31.4571 46.4441 32.274 46.1799 33.0318L52.3857 39.2409C53.3038 38.9177 54.3047 38.9167 55.2234 39.2382C56.1422 39.5596 56.9241 40.1844 57.4404 41.0095C57.9567 41.8347 58.1766 42.811 58.0639 43.7778C57.9512 44.7447 57.5126 45.6443 56.8204 46.3286C56.1196 47.0336 55.1957 47.4735 54.2066 47.5731C53.2175 47.6727 52.2245 47.4258 51.3973 46.8745C50.57 46.3233 49.9598 45.502 49.6708 44.5508C49.3819 43.5997 49.4322 42.5777 49.8131 41.6595L44.0273 35.8704V51.1061C44.9068 51.5415 45.6104 52.265 46.0211 53.1562C46.4317 54.0475 46.5244 55.0525 46.2839 56.0038C46.0433 56.9551 45.484 57.7952 44.6991 58.3842C43.9142 58.9731 42.9511 59.2752 41.9705 59.2402C40.9898 59.2052 40.0508 58.8351 39.3099 58.1917C38.569 57.5483 38.071 56.6704 37.8989 55.7043C37.7269 54.7383 37.8911 53.7424 38.3642 52.8828C38.8374 52.0231 39.5909 51.3516 40.4992 50.9801V35.6044C39.9751 35.3897 39.4988 35.0734 39.0976 34.6737C38.6964 34.274 38.3783 33.7989 38.1616 33.2757C37.9449 32.7525 37.8339 32.1916 37.835 31.6254C37.8361 31.0591 37.9493 30.4986 38.1681 29.9763L31.8223 23.6272L15.0566 40.3925C14.7216 40.7272 14.4559 41.1247 14.2746 41.5622C14.0933 41.9997 14 42.4687 14 42.9423C14 43.4158 14.0933 43.8848 14.2746 44.3223C14.4559 44.7598 14.7216 45.1573 15.0566 45.492L39.5086 69.9435C39.8434 70.2784 40.2409 70.5441 40.6784 70.7254C41.1159 70.9067 41.5849 71 42.0585 71C42.5321 71 43.001 70.9067 43.4385 70.7254C43.876 70.5441 44.2735 70.2784 44.6083 69.9435L68.9449 45.6075C69.6205 44.931 70 44.0139 70 43.0578C70 42.1016 69.6205 41.1845 68.9449 40.508" fill="white"/>
</svg>
