<svg width="84" height="84" viewBox="0 0 84 84" fill="none" xmlns="http://www.w3.org/2000/svg">
<rect width="84" height="84" rx="13" fill="#B6C2C8"/>
<g clip-path="url(#clip0_12_369)">
<path d="M43 14C27.5417 14 15 26.5417 15 42C15 57.4583 27.5417 70 43 70C58.4583 70 71 57.4583 71 42C71 26.5417 58.4583 14 43 14ZM44.792 23.5783C45.219 23.5783 45.639 23.702 46.017 23.9447C46.3087 24.1383 46.6867 24.3763 47.7787 26.6373C48.502 26.432 48.8707 26.5393 49.0643 26.593C49.5403 26.7237 49.9183 27.0363 50.1447 27.468C51.2577 29.6077 51.4093 33.425 50.924 35.8797C50.3617 38.7543 49.1623 40.614 48.285 41.8903C49.041 42.658 50.1003 43.988 50.8913 46.1487C51.54 47.9547 51.6147 49.5973 51.5283 50.8503C52.012 50.6239 52.4812 50.3675 52.933 50.0827C54.3167 49.2287 56.4027 47.943 58.89 47.9103C60.556 47.8893 61.851 48.9487 62.047 50.484C62.1418 51.1933 61.9682 51.9123 61.5603 52.5003C61.1524 53.0882 60.5396 53.5025 59.842 53.662C58.3277 54.0307 57.6253 54.3107 55.593 55.629C52.7183 57.4887 49.6687 58.527 48.565 58.8723C48.0878 59.2643 47.5251 59.5385 46.9223 59.6727C45.2027 60.095 39.3017 60.4077 38.835 60.4077H38.7277C36.9007 60.4077 35.895 59.8453 35.3443 59.262C33.809 60.0297 31.821 59.7053 30.393 58.9493C29.9073 58.7069 29.5131 58.314 29.2692 57.8291C29.0253 57.3442 28.9448 56.7934 29.0397 56.259C28.9058 56.1196 28.7862 55.9672 28.6827 55.804C28.3047 55.2207 27.4507 53.62 27.6233 51.2633C27.754 49.5763 28.9207 48.0737 29.6767 47.2733C29.6222 45.4714 29.9466 43.6781 30.6287 42.0093C31.3427 40.313 32.6937 38.864 33.7087 37.9563C32.962 36.7033 32.206 34.7667 32.941 32.7997C33.4707 31.395 33.9023 30.6157 34.8543 30.2797H34.8427C35.307 30.107 35.7503 29.9227 35.9767 29.6753C37.3653 28.1581 39.2863 27.2361 41.3387 27.1017C41.425 26.8847 41.523 26.67 41.6303 26.4413C42.3537 24.906 43.1213 24.0403 44.0197 23.716C44.2644 23.6241 44.5236 23.5767 44.785 23.576L44.792 23.5783ZM44.806 25.2117C43.623 25.249 42.4703 28.756 42.4703 28.756C42.4703 28.756 39.507 28.28 37.183 30.7883C36.7187 31.297 36.091 31.5677 35.4423 31.815C35.258 31.8803 35.0317 31.8687 34.4693 33.383C33.6037 35.6953 35.9277 38.269 35.9277 38.269C35.9277 38.269 33.1603 40.2267 32.1337 42.658C30.9997 45.3273 31.345 47.9337 31.345 47.9337C31.345 47.9337 29.378 49.6417 29.2473 51.4033C29.1283 52.9503 29.5717 54.2033 30.0477 54.9383C30.5773 55.7387 31.2377 55.349 31.2377 55.349C31.2377 55.349 29.9287 56.8727 31.1513 57.5213C32.2643 58.1047 34.145 58.4407 35.1413 57.435C35.8647 56.7117 36.007 55.0993 36.2753 54.4413C36.3407 54.2897 36.5553 54.7003 36.763 54.9057C36.9893 55.1227 37.379 55.3607 37.379 55.3607C37.379 55.3607 35.6173 56.1167 36.3407 57.848C36.5787 58.422 37.4327 58.7883 38.828 58.7767C39.346 58.765 45.044 58.4523 46.5583 58.086C47.4333 57.8807 47.7367 57.4257 47.7367 57.4257C47.7367 57.4257 51.3907 56.42 54.732 54.2593C56.8717 52.864 57.749 52.486 59.478 52.0753C60.906 51.73 60.808 49.5133 58.9157 49.546C56.958 49.567 55.2407 50.5727 53.7917 51.471C51.078 53.1463 49.727 53.039 49.727 53.039L49.685 52.9643C49.5007 52.661 50.5507 49.9473 49.3723 46.7157C48.096 43.1807 46.0753 42.3267 46.2363 42.056C46.9293 40.8893 48.6583 39.0297 49.349 35.5693C49.7597 33.4717 49.6523 30.023 48.7213 28.217C48.5487 27.881 47.0133 28.7793 47.0133 28.7793C47.0133 28.7793 45.576 25.5803 45.1747 25.319C45.0665 25.2463 44.9363 25.2089 44.806 25.2117Z" fill="white"/>
</g>
<defs>
<clipPath id="clip0_12_369">
<rect width="56" height="56" fill="white" transform="translate(15 14)"/>
</clipPath>
</defs>
</svg>
