<svg width="84" height="84" viewBox="0 0 84 84" fill="none" xmlns="http://www.w3.org/2000/svg">
<rect width="84" height="84" rx="13" fill="#B6C2C8"/>
<path d="M28 50V36L41 43.5V57L28 50Z" fill="white"/>
<path d="M42 27.5L29 34.5L41.5 42L54.5 34.5L42 27.5Z" fill="white"/>
<path d="M42.5 57V43.5L55.5 36V50L42.5 57Z" fill="white"/>
<path d="M55.5 52L42.5 59L43 68L63.5 56.5L55.5 52Z" fill="white"/>
<path d="M41 59V68L20 56.5L28 52L41 59Z" fill="white"/>
<path d="M26.5 50.5L19 55V30.5L26.5 35V50.5Z" fill="white"/>
<path d="M41 17L20 29L27 33.5L41 26V17Z" fill="white"/>
<path d="M43 26V17L64 29L56.5 33.5L43 26Z" fill="white"/>
<path d="M57.5 50.5V35L65 30.5V55L57.5 50.5Z" fill="white"/>
</svg>
