<svg width="84" height="84" viewBox="0 0 84 84" fill="none" xmlns="http://www.w3.org/2000/svg">
<rect width="84" height="84" rx="13" fill="#B6C2C8"/>
<circle cx="42" cy="43" r="29" fill="white"/>
<path d="M33.404 53.135C31.6781 53.135 30.1973 52.7799 28.9615 52.0697C27.7328 51.3595 26.7882 50.3722 26.1277 49.108C25.4672 47.8367 25.1369 46.3666 25.1369 44.6975C25.1369 43.0214 25.4672 41.5512 26.1277 40.287C26.7953 39.0157 27.7435 38.0249 28.9722 37.3147C30.208 36.6045 31.6817 36.2494 33.3933 36.2494C34.9061 36.2494 36.2236 36.5228 37.3458 37.0697C38.475 37.6166 39.3557 38.3907 39.9878 39.3921C40.627 40.3864 40.9644 41.5548 40.9999 42.8971H36.1313C36.0318 42.059 35.7477 41.4021 35.279 40.9262C34.8173 40.4504 34.2136 40.2124 33.4679 40.2124C32.8642 40.2124 32.3351 40.3829 31.8806 40.7238C31.426 41.0576 31.0709 41.5548 30.8152 42.2153C30.5666 42.8687 30.4423 43.6784 30.4423 44.6443C30.4423 45.6102 30.5666 46.4269 30.8152 47.0945C31.0709 47.7551 31.426 48.2558 31.8806 48.5967C32.3351 48.9305 32.8642 49.0974 33.4679 49.0974C33.9509 49.0974 34.377 48.9944 34.7463 48.7884C35.1227 48.5825 35.4317 48.2806 35.6732 47.8829C35.9146 47.4781 36.0673 46.988 36.1313 46.4127H40.9999C40.9502 47.7622 40.6128 48.9411 39.9878 49.9497C39.3699 50.9582 38.4999 51.743 37.3777 52.3041C36.2627 52.858 34.9381 53.135 33.404 53.135ZM46.8513 58.9624C46.2263 58.9624 45.6368 58.9127 45.0828 58.8133C44.5288 58.721 44.053 58.5967 43.6552 58.4404L44.8058 54.6585C45.3172 54.8289 45.7788 54.9284 46.1907 54.9568C46.6098 54.9852 46.9684 54.9177 47.2667 54.7543C47.5721 54.5981 47.8065 54.3176 47.9699 53.9127L48.1723 53.4227L42.3555 36.4624H47.8101L50.825 48.1386H50.9954L54.053 36.4624H59.5395L53.3711 54.3921C53.0728 55.287 52.6503 56.0754 52.1034 56.7572C51.5636 57.4461 50.864 57.9859 50.0047 58.3765C49.1524 58.7671 48.1013 58.9624 46.8513 58.9624Z" fill="#B6C2C8"/>
</svg>
