<svg width="84" height="84" viewBox="0 0 84 84" fill="none" xmlns="http://www.w3.org/2000/svg">
<rect width="84" height="84" rx="13" fill="#B6C2C8"/>
<path d="M40.2317 15.0123C40.1156 15.0229 39.7459 15.0598 39.4134 15.0862C31.7437 15.7777 24.5595 19.9161 20.0094 26.2768C17.4757 29.8135 15.8551 33.8252 15.2428 38.0745C15.0264 39.5579 15 39.996 15 42.007C15 44.0183 15.0264 44.4564 15.2428 45.9396C16.7103 56.0799 23.9261 64.5995 33.7126 67.756C35.4651 68.3208 37.3126 68.7062 39.4134 68.9384C40.2317 69.0282 43.7683 69.0282 44.5866 68.9384C48.2129 68.5372 51.2851 67.6399 54.3149 66.0933C54.7796 65.8557 54.8691 65.7925 54.8059 65.7396C54.7636 65.7079 52.7842 63.0529 50.4087 59.8435L46.091 54.0106L40.6804 46.003C37.7032 41.6007 35.254 38.0007 35.2329 38.0007C35.2117 37.9953 35.1906 41.5532 35.18 45.8973C35.1642 53.5039 35.1589 53.8101 35.0639 53.9894C34.9267 54.2482 34.8211 54.3537 34.5994 54.4698C34.4305 54.5544 34.2827 54.5701 33.4856 54.5701H32.5724L32.3296 54.4171C32.1713 54.3168 32.0551 54.1847 31.976 54.0317L31.8651 53.7941L31.8757 43.2106L31.8915 32.6217L32.0551 32.4159C32.1396 32.305 32.3191 32.1625 32.4458 32.0939C32.6622 31.9883 32.7466 31.9777 33.6598 31.9777C34.7367 31.9777 34.9161 32.02 35.1959 32.3261C35.2751 32.4106 38.2047 36.8235 41.7098 42.1391C45.2146 47.4545 50.0075 54.7126 52.3619 58.2757L56.6376 64.7525L56.8541 64.6101C58.7702 63.3643 60.7972 61.5906 62.4016 59.7431C65.8169 55.8211 68.0181 51.0388 68.7572 45.9396C68.9737 44.4564 69 44.0183 69 42.007C69 39.996 68.9737 39.5579 68.7572 38.0745C67.2898 27.9343 60.0738 19.4147 50.2874 16.2581C48.5612 15.6986 46.7243 15.3132 44.6658 15.081C44.1589 15.0282 40.6698 14.9701 40.2317 15.0123ZM51.2851 31.3443C51.5384 31.471 51.7443 31.7138 51.8181 31.9672C51.8604 32.1044 51.871 35.0393 51.8604 41.6533L51.8447 51.1443L50.1713 48.5788L48.4926 46.0136V39.1144C48.4926 34.654 48.5137 32.1467 48.5455 32.0252C48.6298 31.7296 48.8146 31.4974 49.0679 31.3601C49.2844 31.2493 49.3636 31.2387 50.1925 31.2387C50.9737 31.2387 51.1109 31.2493 51.2851 31.3443Z" fill="white"/>
</svg>
