<svg width="41" height="39" viewBox="0 0 41 39" fill="none" xmlns="http://www.w3.org/2000/svg">
<path d="M13.6842 12.2723C13.6842 12.2723 6.11573 13.1106 1.06689 13.671C0.611829 13.7261 0.209456 14.0303 0.058566 14.4925C-0.0923242 14.9548 0.0585657 15.4362 0.393877 15.7404C4.14458 19.1629 9.7802 24.2884 9.7802 24.2884C9.77541 24.2884 8.23298 31.7443 7.20788 36.7189C7.12166 37.1692 7.28453 37.6458 7.67732 37.9308C8.06772 38.2158 8.57069 38.2206 8.96588 37.9978C13.3824 35.4878 19.9976 31.7132 19.9976 31.7132C19.9976 31.7132 26.6152 35.4878 31.0246 38.0002C31.427 38.2206 31.9299 38.2158 32.3203 37.9308C32.7131 37.6458 32.876 37.1691 32.7874 36.7213C31.7623 31.7443 30.2222 24.2884 30.2222 24.2884C30.2222 24.2884 35.8579 19.1629 39.6086 15.7475C39.9439 15.4338 40.0924 14.9524 39.9439 14.4925C39.7954 14.0327 39.393 13.7285 38.9379 13.6758C33.8891 13.1106 26.3182 12.2723 26.3182 12.2723C26.3182 12.2723 23.1807 5.33133 21.0898 0.704032C20.8934 0.289683 20.4814 -0.00012207 19.9976 -0.00012207C19.5138 -0.00012207 19.0995 0.292078 18.9126 0.704032C16.8193 5.33133 13.6842 12.2723 13.6842 12.2723Z" fill="white"/>
</svg>
