<svg width="36" height="34" viewBox="0 0 36 34" fill="none" xmlns="http://www.w3.org/2000/svg">
<path d="M22.5 23.8C22.5 24.4264 21.9968 24.9333 21.375 24.9333H14.625C14.0062 24.9333 13.5 24.4233 13.5 23.8V20.4H0V30.6C0 32.4133 1.5757 34 3.375 34H32.625C34.4243 34 36 32.4126 36 30.6V20.4H22.5V23.8ZM32.625 6.8H27V3.4C27 1.58737 25.425 0 23.625 0H12.375C10.575 0 9 1.58737 9 3.4V6.8H3.375C1.5757 6.8 0 8.38667 0 10.2V18.1333H36V10.2C36 8.38667 34.425 6.8 32.625 6.8ZM23.625 6.8H12.375V3.4H23.625V6.8Z" fill="white"/>
</svg>
