<svg width="44" height="44" viewBox="0 0 44 44" fill="none" xmlns="http://www.w3.org/2000/svg">
<path d="M24.3455 18.1031L26.0454 18.0937C27.1238 16.9167 28.4257 15.5173 30.1272 15.6212C31.8352 15.5254 33.1306 16.9004 34.2093 18.0937C34.931 18.1226 36.3244 18.0108 37 18.2736V7H7V25H19.4272L20.2728 24.1094L20.291 22.3378C20.3009 21.2196 20.731 20.1499 21.4889 19.3582C22.2469 18.5665 23.2724 18.116 24.3455 18.1031ZM12.9091 14.1526C11.1217 14.1246 11.1118 11.3406 12.9091 11.3105H31.0909C32.876 11.3434 32.8864 14.1174 31.0909 14.1526H12.9091Z" fill="white"/>
<path d="M42.625 5.63273e-06H1.375C1.0116 -0.0010491 0.662655 0.14606 0.404834 0.40901C0.147012 0.67196 0.0014035 1.02924 0 1.40236V30.5882C0.00105857 30.9623 0.146264 31.3208 0.403897 31.5853C0.661531 31.8498 1.01065 31.9989 1.375 32H19.7726C18.5542 30.8942 17.653 29.4449 17.9117 27.7647H5.5C5.13565 27.7636 4.78653 27.6145 4.5289 27.35C4.27126 27.0855 4.12606 26.727 4.125 26.3529V5.64706C4.12475 5.46159 4.16014 5.2779 4.22915 5.1065C4.29816 4.9351 4.39943 4.77936 4.52716 4.64821C4.65489 4.51707 4.80657 4.41309 4.97351 4.34223C5.14045 4.27138 5.31936 4.23504 5.5 4.2353H38.5C38.8644 4.23637 39.2135 4.38546 39.4711 4.64998C39.7288 4.91451 39.874 5.27297 39.875 5.64706V20.9035C40.2237 21.7004 40.1073 23.188 40.1317 24.0564L41.3417 25.3081C43.2755 27.4026 42.689 30.2675 40.6175 32H42.625C42.9888 31.9973 43.3371 31.8477 43.5944 31.5836C43.8517 31.3194 43.9974 30.9618 44 30.5882V1.40236C43.997 1.02974 43.8509 0.673386 43.5935 0.41078C43.336 0.148173 42.9879 0.000548898 42.625 5.63273e-06Z" fill="white"/>
<path d="M38.6646 38L34.7885 38.0284L33 39.8091L34.393 43.6882C34.4246 43.7762 34.4813 43.8528 34.556 43.9082C34.6306 43.9636 34.7198 43.9954 34.8123 43.9995C34.9047 44.0037 34.9964 43.98 35.0755 43.9314C35.1547 43.8829 35.2179 43.8117 35.257 43.7268L36.5579 40.9078L39.3336 42.2219C39.4175 42.2616 39.5111 42.2752 39.6027 42.2611C39.6942 42.2469 39.7796 42.2056 39.8479 42.1423C39.9162 42.0791 39.9645 41.9967 39.9865 41.9057C40.0086 41.8147 40.0035 41.7192 39.9718 41.6311L38.6646 38Z" fill="white"/>
<path d="M22.3355 38L21.0282 41.6306C20.9965 41.7186 20.9914 41.8142 21.0135 41.9052C21.0355 41.9962 21.0838 42.0785 21.1521 42.1417C21.2204 42.205 21.3058 42.2463 21.3973 42.2605C21.4889 42.2746 21.5825 42.261 21.6664 42.2213L24.4421 40.9074L25.7434 43.7269C25.7826 43.8117 25.8457 43.8829 25.9248 43.9314C26.0039 43.9799 26.0955 44.0037 26.1879 43.9995C26.2803 43.9954 26.3695 43.9637 26.4441 43.9083C26.5187 43.853 26.5754 43.7765 26.607 43.6885L28 39.8183L26.2022 38.0284L22.3355 38Z" fill="white"/>
<path d="M37.6367 24.8888L37.6163 21.9314C37.6137 21.555 37.4705 21.1949 37.2177 20.9288C36.9649 20.6627 36.6228 20.512 36.2653 20.5092L33.4557 20.4877L31.4553 18.4123C31.2007 18.1481 30.8575 18 30.5 18C30.1424 18 29.7993 18.1481 29.5446 18.4123L27.5445 20.4877L24.735 20.5092C24.3774 20.5119 24.0353 20.6625 23.7825 20.9286C23.5296 21.1947 23.3865 21.5549 23.3839 21.9312L23.3633 24.8888L21.3918 26.9942C21.1407 27.2623 21 27.6235 21 27.9999C21 28.3763 21.1407 28.7376 21.3918 29.0056L23.3633 31.1112L23.3837 34.0686C23.3864 34.445 23.5296 34.8051 23.7824 35.0712C24.0352 35.3373 24.3773 35.488 24.7348 35.4908L27.5443 35.5123L29.5447 37.5877C29.7993 37.8519 30.1425 38 30.5001 38C30.8576 38 31.2008 37.8519 31.4554 37.5877L33.4555 35.5123L36.2651 35.4908C36.6226 35.4881 36.9647 35.3374 37.2175 35.0713C37.4703 34.8052 37.6135 34.4451 37.6161 34.0688L37.6367 31.1112L39.6082 29.0057C39.8593 28.7376 40 28.3764 40 28C40 27.6237 39.8593 27.2624 39.6082 26.9944L37.6367 24.8888ZM30.5001 31.8286C25.6927 31.6725 25.6936 24.3268 30.5001 24.1714C35.3076 24.3277 35.3065 31.673 30.5001 31.8286Z" fill="white"/>
</svg>
