<svg width="42" height="38" viewBox="0 0 42 38" fill="none" xmlns="http://www.w3.org/2000/svg">
<path d="M41.7227 34.3436L32.5356 16.6081C32.3179 16.1864 31.9827 15.8318 31.5677 15.5838C31.1527 15.3359 30.6743 15.2046 30.1863 15.2046C29.6982 15.2046 29.2199 15.3359 28.8049 15.5838C28.3899 15.8318 28.0547 16.1864 27.837 16.6081L23.6241 24.7791L20.0804 22.4608C23.4173 19.0865 25.539 14.7642 26.1308 10.1346H28.8738C29.57 10.1346 30.2377 9.86765 30.7299 9.3925C31.2222 8.91735 31.4987 8.27291 31.4987 7.60094C31.4987 6.92898 31.2222 6.28453 30.7299 5.80938C30.2377 5.33423 29.57 5.06729 28.8738 5.06729H18.3743V2.53365C18.3743 1.86168 18.0977 1.21724 17.6054 0.742088C17.1132 0.266937 16.4455 0 15.7494 0C15.0532 0 14.3856 0.266937 13.8933 0.742088C13.401 1.21724 13.1245 1.86168 13.1245 2.53365V5.06729H2.62489C1.92873 5.06729 1.26108 5.33423 0.768814 5.80938C0.276551 6.28453 0 6.92898 0 7.60094C0 8.27291 0.276551 8.91735 0.768814 9.3925C1.26108 9.86765 1.92873 10.1346 2.62489 10.1346H20.8154C20.2245 13.644 18.4807 16.8771 15.8412 19.3571C13.9704 17.6009 12.5386 15.4564 11.6545 13.0863C11.5391 12.7727 11.3607 12.4841 11.1297 12.2371C10.8987 11.99 10.6195 11.7893 10.3081 11.6463C9.99676 11.5034 9.65926 11.4211 9.31491 11.4041C8.97056 11.387 8.62612 11.4356 8.30123 11.5471C7.97634 11.6586 7.67739 11.8307 7.42142 12.0537C7.16546 12.2767 6.9575 12.5461 6.80943 12.8467C6.66135 13.1472 6.57606 13.473 6.55842 13.8054C6.54078 14.1378 6.59113 14.4702 6.70661 14.7838C7.78259 17.6615 9.47785 20.2865 11.6808 22.4861L5.0398 27.072C4.49199 27.47 4.12724 28.059 4.02355 28.7132C3.91987 29.3674 4.08547 30.0348 4.48496 30.5726C4.88444 31.1105 5.48609 31.4761 6.16125 31.5913C6.8364 31.7066 7.53147 31.5622 8.0978 31.1892L15.8806 25.8179L21.2354 29.3523L18.6105 34.3309C18.299 34.9323 18.2477 35.6286 18.468 36.2665C18.6883 36.9043 19.1621 37.4316 19.7851 37.7323C20.4082 38.033 21.1295 38.0825 21.7904 37.8699C22.4512 37.6573 22.9975 37.1999 23.3091 36.5985L23.8997 35.4711H30.1863C30.8825 35.4711 31.5501 35.2041 32.0424 34.729C32.5346 34.2538 32.8112 33.6094 32.8112 32.9374C32.8112 32.2654 32.5346 31.621 32.0424 31.1459C31.5501 30.6707 30.8825 30.4038 30.1863 30.4038H26.5639L30.1863 23.3982L37.0241 36.5985C37.1784 36.8963 37.3919 37.1619 37.6525 37.38C37.9131 37.5981 38.2156 37.7646 38.5428 37.8699C38.8701 37.9752 39.2156 38.0172 39.5596 37.9936C39.9037 37.97 40.2396 37.8812 40.5481 37.7323C40.8566 37.5834 41.1317 37.3774 41.3577 37.1258C41.5837 36.8743 41.7561 36.5823 41.8652 36.2665C41.9743 35.9506 42.0178 35.6171 41.9934 35.285C41.9689 34.9529 41.877 34.6287 41.7227 34.3309V34.3436Z" fill="white"/>
</svg>
