<svg width="52" height="29" viewBox="0 0 52 29" fill="none" xmlns="http://www.w3.org/2000/svg">
<path d="M51.8755 25.6533H0.000244141V27.3894H51.8755V25.6533Z" fill="white"/>
<path fill-rule="evenodd" clip-rule="evenodd" d="M41.3167 25.6533H51.8751V27.3894H42.319L41.3167 25.6533Z" fill="white"/>
<path fill-rule="evenodd" clip-rule="evenodd" d="M41.3167 25.6533H51.8751V27.3894H42.319L41.3167 25.6533Z" fill="white"/>
<path fill-rule="evenodd" clip-rule="evenodd" d="M0.911491 28.2509H50.9638C51.4651 28.2509 51.8753 27.8407 51.8753 27.3394H0C0 27.8407 0.410187 28.2509 0.911491 28.2509Z" fill="white"/>
<path fill-rule="evenodd" clip-rule="evenodd" d="M42.8165 28.2509H50.9638C51.4651 28.2509 51.8752 27.8407 51.8752 27.3394L42.2903 27.3394L42.8165 28.2509Z" fill="white"/>
<path d="M28.2856 26.3535H23.5898V26.6226H28.2856V26.3535Z" fill="white"/>
<path d="M28.2856 26.3868H23.5898V26.6559H28.2856V26.3868Z" fill="white"/>
<path d="M48.479 26.3528H48.1418V26.6899H48.479V26.3528Z" fill="white"/>
<path d="M49.3772 26.3528H49.04V26.6899H49.3772V26.3528Z" fill="white"/>
<path d="M50.2754 26.3528H49.9382V26.6899H50.2754V26.3528Z" fill="white"/>
<path fill-rule="evenodd" clip-rule="evenodd" d="M1.6001 28.2509H2.3987C2.3987 28.3885 2.28612 28.5011 2.14851 28.5011H1.85029C1.71267 28.5011 1.6001 28.3885 1.6001 28.2509Z" fill="white"/>
<path fill-rule="evenodd" clip-rule="evenodd" d="M49.4766 28.2509H50.2752C50.2752 28.3885 50.1626 28.5011 50.025 28.5011H49.7268C49.5891 28.5011 49.4766 28.3885 49.4766 28.2509Z" fill="white"/>
<path fill-rule="evenodd" clip-rule="evenodd" d="M7.68214 25.12H44.1929C44.7796 25.12 45.2596 24.64 45.2596 24.0533V1.06665C45.2596 0.479981 44.7793 0 44.1929 0H7.68214C7.0958 0 6.61548 0.480322 6.61548 1.06665V24.0533C6.61548 24.6397 7.09546 25.12 7.68214 25.12Z" fill="white"/>
<path d="M43.5513 1.7417H8.32397V23.3949H43.5513V1.7417Z" fill="white"/>
<path fill-rule="evenodd" clip-rule="evenodd" d="M27.0222 1.7417L39.5237 23.3949H43.5515V1.7417H27.0222Z" fill="white"/>
<path d="M25.7711 1.04621C25.8616 1.13824 26.0095 1.13954 26.1015 1.04912C26.1935 0.958693 26.1948 0.810785 26.1044 0.718756C26.014 0.626728 25.8661 0.625428 25.774 0.715853C25.682 0.806279 25.6807 0.954187 25.7711 1.04621Z" fill="white"/>
<path d="M25.809 1.00921C25.879 1.08044 25.9934 1.08144 26.0647 1.01145C26.1359 0.941462 26.1369 0.826978 26.0669 0.755747C25.9969 0.684515 25.8824 0.683509 25.8112 0.7535C25.74 0.823491 25.739 0.937975 25.809 1.00921Z" fill="white"/>
<path fill-rule="evenodd" clip-rule="evenodd" d="M26.0668 0.755757C26.1368 0.826979 26.1358 0.941472 26.0646 1.01145C26.0514 1.02441 26.0367 1.03493 26.0211 1.04303C25.9708 1.01614 25.9272 0.967633 25.9029 0.904602C25.8758 0.834377 25.8785 0.761431 25.9049 0.704674C25.9619 0.69414 26.0231 0.711229 26.0668 0.755757Z" fill="white"/>
</svg>
